<mxfile host="app.diagrams.net" modified="2023-04-25T13:10:33.929Z" agent="5.0 (Windows)" etag="IRhN3Cwc8h0HXDLvutI-" version="21.0.10" type="github">
  <diagram name="Seite-1" id="T6qStYmElyos_pqOZEYT">
    <mxGraphModel dx="1210" dy="566" grid="1" gridSize="10" guides="1" tooltips="1" connect="1" arrows="1" fold="1" page="1" pageScale="1" pageWidth="827" pageHeight="1169" math="0" shadow="0">
      <root>
        <mxCell id="0" />
        <mxCell id="1" parent="0" />
        <mxCell id="uGUpkJKsq6nUnIyjZ_gp-3" value="" style="edgeStyle=orthogonalEdgeStyle;rounded=0;orthogonalLoop=1;jettySize=auto;html=1;" edge="1" parent="1" source="uGUpkJKsq6nUnIyjZ_gp-1" target="uGUpkJKsq6nUnIyjZ_gp-2">
          <mxGeometry relative="1" as="geometry" />
        </mxCell>
        <mxCell id="uGUpkJKsq6nUnIyjZ_gp-1" value="Navigate to projects screen" style="rounded=1;whiteSpace=wrap;html=1;" vertex="1" parent="1">
          <mxGeometry x="350" y="260" width="120" height="60" as="geometry" />
        </mxCell>
        <mxCell id="uGUpkJKsq6nUnIyjZ_gp-5" value="" style="edgeStyle=orthogonalEdgeStyle;rounded=0;orthogonalLoop=1;jettySize=auto;html=1;" edge="1" parent="1" source="uGUpkJKsq6nUnIyjZ_gp-2" target="uGUpkJKsq6nUnIyjZ_gp-4">
          <mxGeometry relative="1" as="geometry" />
        </mxCell>
        <mxCell id="uGUpkJKsq6nUnIyjZ_gp-2" value="Press &quot;+&quot; Button to create a new project" style="whiteSpace=wrap;html=1;rounded=1;" vertex="1" parent="1">
          <mxGeometry x="550" y="260" width="120" height="60" as="geometry" />
        </mxCell>
        <mxCell id="uGUpkJKsq6nUnIyjZ_gp-7" value="" style="edgeStyle=orthogonalEdgeStyle;rounded=0;orthogonalLoop=1;jettySize=auto;html=1;" edge="1" parent="1" source="uGUpkJKsq6nUnIyjZ_gp-4" target="uGUpkJKsq6nUnIyjZ_gp-6">
          <mxGeometry relative="1" as="geometry" />
        </mxCell>
        <mxCell id="uGUpkJKsq6nUnIyjZ_gp-4" value="Input project title" style="whiteSpace=wrap;html=1;rounded=1;" vertex="1" parent="1">
          <mxGeometry x="750" y="260" width="120" height="60" as="geometry" />
        </mxCell>
        <mxCell id="uGUpkJKsq6nUnIyjZ_gp-9" value="" style="edgeStyle=orthogonalEdgeStyle;rounded=0;orthogonalLoop=1;jettySize=auto;html=1;" edge="1" parent="1" source="uGUpkJKsq6nUnIyjZ_gp-6" target="uGUpkJKsq6nUnIyjZ_gp-8">
          <mxGeometry relative="1" as="geometry" />
        </mxCell>
        <mxCell id="uGUpkJKsq6nUnIyjZ_gp-6" value="Select start date and end date" style="whiteSpace=wrap;html=1;rounded=1;" vertex="1" parent="1">
          <mxGeometry x="950" y="260" width="120" height="60" as="geometry" />
        </mxCell>
        <mxCell id="uGUpkJKsq6nUnIyjZ_gp-11" value="" style="edgeStyle=orthogonalEdgeStyle;rounded=0;orthogonalLoop=1;jettySize=auto;html=1;" edge="1" parent="1" source="uGUpkJKsq6nUnIyjZ_gp-8" target="uGUpkJKsq6nUnIyjZ_gp-10">
          <mxGeometry relative="1" as="geometry" />
        </mxCell>
        <mxCell id="uGUpkJKsq6nUnIyjZ_gp-8" value="Input optional description" style="whiteSpace=wrap;html=1;rounded=1;" vertex="1" parent="1">
          <mxGeometry x="1150" y="260" width="120" height="60" as="geometry" />
        </mxCell>
        <mxCell id="uGUpkJKsq6nUnIyjZ_gp-12" style="edgeStyle=orthogonalEdgeStyle;rounded=0;orthogonalLoop=1;jettySize=auto;html=1;exitX=0.5;exitY=1;exitDx=0;exitDy=0;entryX=0.5;entryY=1;entryDx=0;entryDy=0;" edge="1" parent="1" source="uGUpkJKsq6nUnIyjZ_gp-10" target="uGUpkJKsq6nUnIyjZ_gp-1">
          <mxGeometry relative="1" as="geometry" />
        </mxCell>
        <mxCell id="uGUpkJKsq6nUnIyjZ_gp-10" value="Press &quot;Submit&quot; Button to save the project" style="whiteSpace=wrap;html=1;rounded=1;" vertex="1" parent="1">
          <mxGeometry x="1350" y="260" width="120" height="60" as="geometry" />
        </mxCell>
      </root>
    </mxGraphModel>
  </diagram>
</mxfile>
